Coordinates
version=1
nRows=17
nColumns=38
inDegrees=no

Units are S.I. units (second, meters, Newtons, ...)
If the header above contains a line with 'inDegrees', this indicates whether rotational values are in degrees (yes) or radians (no).

endheader
time	pelvis_tilt	pelvis_list	pelvis_rotation	pelvis_tx	pelvis_ty	pelvis_tz	hip_flexion_r	hip_adduction_r	hip_rotation_r	knee_angle_r	ankle_angle_r	subtalar_angle_r	mtp_angle_r	hip_flexion_l	hip_adduction_l	hip_rotation_l	knee_angle_l	ankle_angle_l	subtalar_angle_l	mtp_angle_l	lumbar_extension	lumbar_bending	lumbar_rotation	arm_flex_r	arm_add_r	arm_rot_r	elbow_flex_r	pro_sup_r	wrist_flex_r	wrist_dev_r	arm_flex_l	arm_add_l	arm_rot_l	elbow_flex_l	pro_sup_l	wrist_flex_l	wrist_dev_l
1.91	-0.139945	1.32823	-1.33393	0.637764	0.191181	0.922954	0.171258	-0.0180667	-0.1396	0.13507	-0.160681	0	0	-0.435376	-0.0859057	-0.160708	0.280997	-0.0790277	0	0	-0.227007	0.118921	0.179128	-0.0983887	-0.760288	0.0723975	1.49511	0.497141	0	0	0.547448	-0.486824	0.782842	0.992519	0.671653	0	0
1.92	-0.131074	1.32953	-1.34129	0.637005	0.180643	0.92128	0.171193	-0.0203591	-0.137351	0.139081	-0.167304	0	0	-0.442757	-0.0868916	-0.158512	0.288743	-0.0759454	0	0	-0.225402	0.117592	0.178625	-0.0994713	-0.762622	0.0708847	1.49721	0.496588	0	0	0.547272	-0.485986	0.782079	0.993524	0.671087	0	0
1.93	-0.124855	1.32884	-1.34568	0.636328	0.170122	0.919816	0.174653	-0.0222392	-0.136566	0.167958	-0.172837	0	0	-0.451095	-0.0889978	-0.156345	0.298322	-0.072379	0	0	-0.226226	0.117973	0.178081	-0.100545	-0.766039	0.0691365	1.50027	0.494962	0	0	0.547247	-0.484978	0.781249	0.994858	0.669713	0	0
1.94	-0.121456	1.32669	-1.34705	0.635611	0.159475	0.91853	0.180202	-0.0230693	-0.136955	0.214852	-0.169145	0	0	-0.460131	-0.0923181	-0.154671	0.309219	-0.0697202	0	0	-0.22847	0.119618	0.177458	-0.101652	-0.770274	0.0677282	1.50387	0.492283	0	0	0.547292	-0.484169	0.780844	0.996405	0.667913	0	0
1.95	-0.120361	1.3234	-1.34594	0.63478	0.148599	0.917421	0.184056	-0.0218339	-0.136741	0.265381	-0.152516	0	0	-0.469822	-0.0968114	-0.152445	0.321388	-0.0683831	0	0	-0.231397	0.122071	0.176595	-0.102677	-0.774699	0.0669247	1.50748	0.489039	0	0	0.547243	-0.483775	0.781048	0.997828	0.66613	0	0
1.96	-0.121977	1.31907	-1.34137	0.633898	0.137463	0.916592	0.182639	-0.0181874	-0.136053	0.30414	-0.137253	0	0	-0.479461	-0.10249	-0.149708	0.335151	-0.069209	0	0	-0.234574	0.12552	0.174726	-0.103392	-0.778085	0.0664974	1.51026	0.486523	0	0	0.546622	-0.483555	0.781236	0.998617	0.665177	0	0
1.97	-0.131803	1.31518	-1.32888	0.632755	0.126249	0.916093	0.178909	-0.0116047	-0.134705	0.328005	-0.132381	0	0	-0.486219	-0.110244	-0.146311	0.352253	-0.0720609	0	0	-0.236902	0.130906	0.172808	-0.103355	-0.780258	0.0671019	1.51195	0.486038	0	0	0.544776	-0.483067	0.780022	0.998496	0.66532	0	0
1.98	-0.143436	1.31143	-1.31484	0.631504	0.114902	0.915843	0.173074	-0.00500542	-0.134688	0.339431	-0.14202	0	0	-0.490664	-0.118433	-0.142066	0.373042	-0.0769351	0	0	-0.238893	0.136869	0.170806	-0.103093	-0.781417	0.0678474	1.51307	0.486643	0	0	0.541624	-0.482567	0.777328	0.998401	0.666201	0	0
1.99	-0.15644	1.30812	-1.30019	0.630019	0.103373	0.915797	0.164191	0.00248286	-0.134175	0.339849	-0.16551	0	0	-0.492167	-0.127147	-0.13716	0.399033	-0.0821574	0	0	-0.240148	0.142786	0.169394	-0.102898	-0.781353	0.0685973	1.51346	0.487794	0	0	0.53739	-0.482379	0.773541	0.998623	0.667547	0	0
2	-0.169172	1.30512	-1.28617	0.628322	0.0915897	0.915915	0.151948	0.0109066	-0.13411	0.333346	-0.200533	0	0	-0.491013	-0.136291	-0.131354	0.429719	-0.0902479	0	0	-0.24054	0.148098	0.168127	-0.102822	-0.780316	0.0699079	1.51294	0.490073	0	0	0.532101	-0.482956	0.768878	0.999644	0.669135	0	0
2.01	-0.181734	1.30217	-1.27299	0.62642	0.0796085	0.916181	0.139235	0.0199164	-0.134935	0.327783	-0.234664	0	0	-0.486851	-0.14582	-0.125594	0.465939	-0.10073	0	0	-0.240511	0.15282	0.167658	-0.10316	-0.778744	0.0713656	1.51179	0.492613	0	0	0.526406	-0.484206	0.764364	1.00153	0.669907	0	0
2.02	-0.194444	1.29898	-1.26128	0.624377	0.0676317	0.91661	0.129306	0.028884	-0.135062	0.32969	-0.264832	0	0	-0.479307	-0.155169	-0.119544	0.509623	-0.114035	0	0	-0.241189	0.157256	0.168653	-0.103191	-0.777677	0.0733131	1.51057	0.494205	0	0	0.520734	-0.486038	0.760344	1.00439	0.669775	0	0
2.03	-0.206902	1.29615	-1.2516	0.622245	0.0557529	0.917156	0.123446	0.0368898	-0.134071	0.340671	-0.288583	0	0	-0.466883	-0.16416	-0.113659	0.562643	-0.13008	0	0	-0.241989	0.161261	0.171148	-0.102618	-0.777276	0.0762217	1.5093	0.494175	0	0	0.51528	-0.48793	0.756749	1.00723	0.668654	0	0
2.04	-0.217958	1.29317	-1.24485	0.620047	0.0440074	0.91784	0.119076	0.0436918	-0.133304	0.357392	-0.301661	0	0	-0.449813	-0.173186	-0.109668	0.624834	-0.150346	0	0	-0.243402	0.164741	0.174939	-0.10154	-0.778049	0.0804572	1.50838	0.494247	0	0	0.510749	-0.489523	0.754162	1.00903	0.667152	0	0
2.05	-0.226619	1.2887	-1.24125	0.617924	0.0324321	0.918736	0.111651	0.049568	-0.134859	0.373794	-0.303967	0	0	-0.429739	-0.182604	-0.107495	0.694859	-0.175273	0	0	-0.246836	0.168133	0.179756	-0.100179	-0.780311	0.084935	1.50808	0.493592	0	0	0.507656	-0.490797	0.753049	1.01034	0.665458	0	0
2.06	-0.241553	1.28196	-1.23113	0.615761	0.0210376	0.919614	0.0989584	0.0583446	-0.138964	0.384351	-0.299646	0	0	-0.406552	-0.196813	-0.109194	0.77245	-0.203507	0	0	-0.25238	0.174195	0.185294	-0.0998196	-0.784311	0.0883409	1.51013	0.490541	0	0	0.506434	-0.492294	0.753891	1.01226	0.662558	0	0
2.07	-0.255869	1.27148	-1.22064	0.61384	0.009903	0.920727	0.0787138	0.0682394	-0.146598	0.388175	-0.291591	0	0	-0.383043	-0.212999	-0.111779	0.853112	-0.235232	0	0	-0.262342	0.181996	0.191134	-0.100819	-0.790266	0.0898599	1.51484	0.485167	0	0	0.507456	-0.493173	0.756412	1.01408	0.658424	0	0
